<svg xmlns="http://www.w3.org/2000/svg" xmlns:xlink="http://www.w3.org/1999/xlink" width="800" zoomAndPan="magnify" viewBox="0 0 600 599.999999" height="800" preserveAspectRatio="xMidYMid meet" version="1.0"><defs><g/></defs><path stroke-linecap="butt" transform="matrix(0.804224, 0, 0, 0.804224, -12.908121, 214.752301)" fill="none" stroke-linejoin="miter" d="M 169.29894 178.998375 L 186.682746 178.998375 L 132.690459 43.565941 L 118.565813 43.565941 L 64.80667 178.998375 L 82.190477 178.998375 L 95.372833 144.37162 L 156.121441 144.37162 Z M 100.001714 131.995554 L 125.744708 64.446909 L 151.492559 131.995554 Z M 246.095633 43.565941 L 203.153405 43.565941 L 203.153405 178.998375 L 246.095633 178.998375 C 289.839294 178.998375 311.900554 154.435673 311.900554 111.260301 C 311.900554 67.944071 289.839294 43.565941 246.095633 43.565941 Z M 244.725912 164.684299 L 219.216062 164.684299 L 219.216062 57.690588 L 244.725912 57.690588 C 280.1541 57.690588 295.599896 75.074394 295.599896 111.260301 C 295.599896 147.446207 280.1541 164.684299 244.725912 164.684299 Z M 346.333023 164.684299 L 346.333023 115.937754 L 408.407638 115.937754 L 408.407638 102.755399 L 346.333023 102.755399 L 346.333023 57.690588 L 418.092832 57.690588 L 418.092832 43.565941 L 330.275223 43.565941 L 330.275223 178.998375 L 420.025986 178.998375 L 420.025986 164.684299 Z M 437.079505 43.565941 L 437.079505 178.998375 L 453.137304 178.998375 L 453.137304 73.374385 L 453.705593 73.374385 L 499.571837 178.998375 L 512.705621 178.998375 L 558.387292 73.374385 L 558.950723 73.374385 L 558.950723 178.998375 L 575.20281 178.998375 L 575.20281 43.565941 L 557.207 43.565941 L 506.138729 158.496266 L 454.837313 43.565941 Z M 696.156024 178.998375 L 713.53983 178.998375 L 659.547543 43.565941 L 645.422897 43.565941 L 591.663754 178.998375 L 609.047561 178.998375 L 622.229917 144.37162 L 682.978525 144.37162 Z M 626.858798 131.995554 L 652.601792 64.446909 L 678.349643 131.995554 Z M 626.858798 131.995554 " stroke="#191615" stroke-width="14.51175" stroke-opacity="1" stroke-miterlimit="4"/><g fill="#1abc9c" fill-opacity="1"><g transform="translate(34.84266, 358.708338)"><g><path d="M 88.386719 0 L 102.390625 0 L 58.976562 -108.925781 L 47.617188 -108.925781 L 4.355469 0 L 18.363281 0 L 28.941406 -27.855469 L 77.804688 -27.855469 Z M 32.679688 -37.8125 L 53.375 -92.121094 L 74.070312 -37.8125 Z M 32.679688 -37.8125 "/></g></g></g><g fill="#1abc9c" fill-opacity="1"><g transform="translate(141.431845, 358.708338)"><g><path d="M 43.570312 -108.925781 L 9.023438 -108.925781 L 9.023438 0 L 43.570312 0 C 78.738281 0 96.476562 -19.761719 96.476562 -54.464844 C 96.476562 -89.320312 78.738281 -108.925781 43.570312 -108.925781 Z M 42.480469 -11.515625 L 21.941406 -11.515625 L 21.941406 -97.566406 L 42.480469 -97.566406 C 70.957031 -97.566406 83.40625 -83.5625 83.40625 -54.464844 C 83.40625 -25.363281 70.957031 -11.515625 42.480469 -11.515625 Z M 42.480469 -11.515625 "/></g></g></g><g fill="#1abc9c" fill-opacity="1"><g transform="translate(243.664117, 358.708338)"><g><path d="M 21.941406 -11.515625 L 21.941406 -50.730469 L 71.890625 -50.730469 L 71.890625 -61.308594 L 21.941406 -61.308594 L 21.941406 -97.566406 L 79.671875 -97.566406 L 79.671875 -108.925781 L 9.023438 -108.925781 L 9.023438 0 L 81.226562 0 L 81.226562 -11.515625 Z M 21.941406 -11.515625 "/></g></g></g><g fill="#1abc9c" fill-opacity="1"><g transform="translate(329.557895, 358.708338)"><g><path d="M 9.023438 -108.925781 L 9.023438 0 L 21.941406 0 L 21.941406 -84.960938 L 22.40625 -84.960938 L 59.289062 0 L 69.867188 0 L 106.59375 -84.960938 L 107.058594 -84.960938 L 107.058594 0 L 120.128906 0 L 120.128906 -108.925781 L 105.660156 -108.925781 L 64.578125 -16.496094 L 23.339844 -108.925781 Z M 9.023438 -108.925781 "/></g></g></g><g fill="#1abc9c" fill-opacity="1"><g transform="translate(458.554164, 358.708338)"><g><path d="M 88.386719 0 L 102.390625 0 L 58.976562 -108.925781 L 47.617188 -108.925781 L 4.355469 0 L 18.363281 0 L 28.941406 -27.855469 L 77.804688 -27.855469 Z M 32.679688 -37.8125 L 53.375 -92.121094 L 74.070312 -37.8125 Z M 32.679688 -37.8125 "/></g></g></g></svg>